<svg width="412" height="870" viewBox="0 0 412 870" fill="none" xmlns="http://www.w3.org/2000/svg" xmlns:xlink="http://www.w3.org/1999/xlink">
<rect width="412" height="870" fill="#060E1E"/>
<rect x="112" y="330" width="189" height="211" fill="url(#pattern0_3_67)"/>
<rect x="142" y="742" width="128" height="128" fill="url(#pattern1_3_67)"/>
<path d="M104.95 848.126C104.362 848.126 103.835 848.028 103.368 847.832C102.901 847.627 102.533 847.347 102.262 846.992C101.991 846.628 101.842 846.213 101.814 845.746H103.13C103.167 846.129 103.345 846.441 103.662 846.684C103.989 846.927 104.413 847.048 104.936 847.048C105.421 847.048 105.804 846.941 106.084 846.726C106.364 846.511 106.504 846.241 106.504 845.914C106.504 845.578 106.355 845.331 106.056 845.172C105.757 845.004 105.295 844.841 104.67 844.682C104.101 844.533 103.634 844.383 103.27 844.234C102.915 844.075 102.607 843.847 102.346 843.548C102.094 843.24 101.968 842.839 101.968 842.344C101.968 841.952 102.085 841.593 102.318 841.266C102.551 840.939 102.883 840.683 103.312 840.496C103.741 840.3 104.231 840.202 104.782 840.202C105.631 840.202 106.317 840.417 106.84 840.846C107.363 841.275 107.643 841.863 107.68 842.61H106.406C106.378 842.209 106.215 841.887 105.916 841.644C105.627 841.401 105.235 841.28 104.74 841.28C104.283 841.28 103.919 841.378 103.648 841.574C103.377 841.77 103.242 842.027 103.242 842.344C103.242 842.596 103.321 842.806 103.48 842.974C103.648 843.133 103.853 843.263 104.096 843.366C104.348 843.459 104.693 843.567 105.132 843.688C105.683 843.837 106.131 843.987 106.476 844.136C106.821 844.276 107.115 844.491 107.358 844.78C107.61 845.069 107.741 845.447 107.75 845.914C107.75 846.334 107.633 846.712 107.4 847.048C107.167 847.384 106.835 847.65 106.406 847.846C105.986 848.033 105.501 848.126 104.95 848.126ZM116.352 840.328V848H115.078V846.866C114.836 847.258 114.495 847.566 114.056 847.79C113.627 848.005 113.151 848.112 112.628 848.112C112.031 848.112 111.494 847.991 111.018 847.748C110.542 847.496 110.164 847.123 109.884 846.628C109.614 846.133 109.478 845.531 109.478 844.822V840.328H110.738V844.654C110.738 845.41 110.93 845.993 111.312 846.404C111.695 846.805 112.218 847.006 112.88 847.006C113.562 847.006 114.098 846.796 114.49 846.376C114.882 845.956 115.078 845.345 115.078 844.542V840.328H116.352ZM119.778 841.742C120.03 841.303 120.403 840.939 120.898 840.65C121.402 840.351 121.985 840.202 122.648 840.202C123.329 840.202 123.945 840.365 124.496 840.692C125.056 841.019 125.494 841.481 125.812 842.078C126.129 842.666 126.288 843.352 126.288 844.136C126.288 844.911 126.129 845.601 125.812 846.208C125.494 846.815 125.056 847.286 124.496 847.622C123.945 847.958 123.329 848.126 122.648 848.126C121.994 848.126 121.416 847.981 120.912 847.692C120.417 847.393 120.039 847.025 119.778 846.586V851.64H118.504V840.328H119.778V841.742ZM124.986 844.136C124.986 843.557 124.869 843.053 124.636 842.624C124.402 842.195 124.085 841.868 123.684 841.644C123.292 841.42 122.858 841.308 122.382 841.308C121.915 841.308 121.481 841.425 121.08 841.658C120.688 841.882 120.37 842.213 120.128 842.652C119.894 843.081 119.778 843.581 119.778 844.15C119.778 844.729 119.894 845.237 120.128 845.676C120.37 846.105 120.688 846.437 121.08 846.67C121.481 846.894 121.915 847.006 122.382 847.006C122.858 847.006 123.292 846.894 123.684 846.67C124.085 846.437 124.402 846.105 124.636 845.676C124.869 845.237 124.986 844.724 124.986 844.136ZM134.964 843.87C134.964 844.113 134.95 844.369 134.922 844.64H128.79C128.837 845.396 129.094 845.989 129.56 846.418C130.036 846.838 130.61 847.048 131.282 847.048C131.833 847.048 132.29 846.922 132.654 846.67C133.028 846.409 133.289 846.063 133.438 845.634H134.81C134.605 846.371 134.194 846.973 133.578 847.44C132.962 847.897 132.197 848.126 131.282 848.126C130.554 848.126 129.901 847.963 129.322 847.636C128.753 847.309 128.305 846.847 127.978 846.25C127.652 845.643 127.488 844.943 127.488 844.15C127.488 843.357 127.647 842.661 127.964 842.064C128.282 841.467 128.725 841.009 129.294 840.692C129.873 840.365 130.536 840.202 131.282 840.202C132.01 840.202 132.654 840.361 133.214 840.678C133.774 840.995 134.204 841.434 134.502 841.994C134.81 842.545 134.964 843.17 134.964 843.87ZM133.648 843.604C133.648 843.119 133.541 842.703 133.326 842.358C133.112 842.003 132.818 841.737 132.444 841.56C132.08 841.373 131.674 841.28 131.226 841.28C130.582 841.28 130.032 841.485 129.574 841.896C129.126 842.307 128.87 842.876 128.804 843.604H133.648ZM137.92 841.574C138.144 841.135 138.461 840.795 138.872 840.552C139.292 840.309 139.801 840.188 140.398 840.188V841.504H140.062C138.634 841.504 137.92 842.279 137.92 843.828V848H136.646V840.328H137.92V841.574ZM144.725 846.824L147.105 840.328H148.463L145.453 848H143.969L140.959 840.328H142.331L144.725 846.824ZM150.374 839.082C150.132 839.082 149.926 838.998 149.758 838.83C149.59 838.662 149.506 838.457 149.506 838.214C149.506 837.971 149.59 837.766 149.758 837.598C149.926 837.43 150.132 837.346 150.374 837.346C150.608 837.346 150.804 837.43 150.962 837.598C151.13 837.766 151.214 837.971 151.214 838.214C151.214 838.457 151.13 838.662 150.962 838.83C150.804 838.998 150.608 839.082 150.374 839.082ZM150.99 840.328V848H149.716V840.328H150.99ZM155.878 848.126C155.29 848.126 154.762 848.028 154.296 847.832C153.829 847.627 153.46 847.347 153.19 846.992C152.919 846.628 152.77 846.213 152.742 845.746H154.058C154.095 846.129 154.272 846.441 154.59 846.684C154.916 846.927 155.341 847.048 155.864 847.048C156.349 847.048 156.732 846.941 157.012 846.726C157.292 846.511 157.432 846.241 157.432 845.914C157.432 845.578 157.282 845.331 156.984 845.172C156.685 845.004 156.223 844.841 155.598 844.682C155.028 844.533 154.562 844.383 154.198 844.234C153.843 844.075 153.535 843.847 153.274 843.548C153.022 843.24 152.896 842.839 152.896 842.344C152.896 841.952 153.012 841.593 153.246 841.266C153.479 840.939 153.81 840.683 154.24 840.496C154.669 840.3 155.159 840.202 155.71 840.202C156.559 840.202 157.245 840.417 157.768 840.846C158.29 841.275 158.57 841.863 158.608 842.61H157.334C157.306 842.209 157.142 841.887 156.844 841.644C156.554 841.401 156.162 841.28 155.668 841.28C155.21 841.28 154.846 841.378 154.576 841.574C154.305 841.77 154.17 842.027 154.17 842.344C154.17 842.596 154.249 842.806 154.408 842.974C154.576 843.133 154.781 843.263 155.024 843.366C155.276 843.459 155.621 843.567 156.06 843.688C156.61 843.837 157.058 843.987 157.404 844.136C157.749 844.276 158.043 844.491 158.286 844.78C158.538 845.069 158.668 845.447 158.678 845.914C158.678 846.334 158.561 846.712 158.328 847.048C158.094 847.384 157.763 847.65 157.334 847.846C156.914 848.033 156.428 848.126 155.878 848.126ZM167.476 843.87C167.476 844.113 167.462 844.369 167.434 844.64H161.302C161.349 845.396 161.606 845.989 162.072 846.418C162.548 846.838 163.122 847.048 163.794 847.048C164.345 847.048 164.802 846.922 165.166 846.67C165.54 846.409 165.801 846.063 165.95 845.634H167.322C167.117 846.371 166.706 846.973 166.09 847.44C165.474 847.897 164.709 848.126 163.794 848.126C163.066 848.126 162.413 847.963 161.834 847.636C161.265 847.309 160.817 846.847 160.49 846.25C160.164 845.643 160 844.943 160 844.15C160 843.357 160.159 842.661 160.476 842.064C160.794 841.467 161.237 841.009 161.806 840.692C162.385 840.365 163.048 840.202 163.794 840.202C164.522 840.202 165.166 840.361 165.726 840.678C166.286 840.995 166.716 841.434 167.014 841.994C167.322 842.545 167.476 843.17 167.476 843.87ZM166.16 843.604C166.16 843.119 166.053 842.703 165.838 842.358C165.624 842.003 165.33 841.737 164.956 841.56C164.592 841.373 164.186 841.28 163.738 841.28C163.094 841.28 162.544 841.485 162.086 841.896C161.638 842.307 161.382 842.876 161.316 843.604H166.16ZM168.682 844.136C168.682 843.352 168.841 842.666 169.158 842.078C169.475 841.481 169.909 841.019 170.46 840.692C171.02 840.365 171.645 840.202 172.336 840.202C172.933 840.202 173.489 840.342 174.002 840.622C174.515 840.893 174.907 841.252 175.178 841.7V837.64H176.466V848H175.178V846.558C174.926 847.015 174.553 847.393 174.058 847.692C173.563 847.981 172.985 848.126 172.322 848.126C171.641 848.126 171.02 847.958 170.46 847.622C169.909 847.286 169.475 846.815 169.158 846.208C168.841 845.601 168.682 844.911 168.682 844.136ZM175.178 844.15C175.178 843.571 175.061 843.067 174.828 842.638C174.595 842.209 174.277 841.882 173.876 841.658C173.484 841.425 173.05 841.308 172.574 841.308C172.098 841.308 171.664 841.42 171.272 841.644C170.88 841.868 170.567 842.195 170.334 842.624C170.101 843.053 169.984 843.557 169.984 844.136C169.984 844.724 170.101 845.237 170.334 845.676C170.567 846.105 170.88 846.437 171.272 846.67C171.664 846.894 172.098 847.006 172.574 847.006C173.05 847.006 173.484 846.894 173.876 846.67C174.277 846.437 174.595 846.105 174.828 845.676C175.061 845.237 175.178 844.729 175.178 844.15ZM183.625 841.756C183.887 841.299 184.269 840.925 184.773 840.636C185.277 840.347 185.851 840.202 186.495 840.202C187.186 840.202 187.807 840.365 188.357 840.692C188.908 841.019 189.342 841.481 189.659 842.078C189.977 842.666 190.135 843.352 190.135 844.136C190.135 844.911 189.977 845.601 189.659 846.208C189.342 846.815 188.903 847.286 188.343 847.622C187.793 847.958 187.177 848.126 186.495 848.126C185.833 848.126 185.249 847.981 184.745 847.692C184.251 847.403 183.877 847.034 183.625 846.586V848H182.351V837.64H183.625V841.756ZM188.833 844.136C188.833 843.557 188.717 843.053 188.483 842.624C188.25 842.195 187.933 841.868 187.531 841.644C187.139 841.42 186.705 841.308 186.229 841.308C185.763 841.308 185.329 841.425 184.927 841.658C184.535 841.882 184.218 842.213 183.975 842.652C183.742 843.081 183.625 843.581 183.625 844.15C183.625 844.729 183.742 845.237 183.975 845.676C184.218 846.105 184.535 846.437 184.927 846.67C185.329 846.894 185.763 847.006 186.229 847.006C186.705 847.006 187.139 846.894 187.531 846.67C187.933 846.437 188.25 846.105 188.483 845.676C188.717 845.237 188.833 844.724 188.833 844.136ZM198.42 840.328L193.8 851.612H192.484L193.996 847.916L190.902 840.328H192.316L194.724 846.544L197.104 840.328H198.42ZM213.331 838.312V848H212.057V840.776L208.837 848H207.941L204.707 840.762V848H203.433V838.312H204.805L208.389 846.32L211.973 838.312H213.331ZM218.838 848.126C218.119 848.126 217.466 847.963 216.878 847.636C216.299 847.309 215.842 846.847 215.506 846.25C215.179 845.643 215.016 844.943 215.016 844.15C215.016 843.366 215.184 842.675 215.52 842.078C215.865 841.471 216.332 841.009 216.92 840.692C217.508 840.365 218.166 840.202 218.894 840.202C219.622 840.202 220.28 840.365 220.868 840.692C221.456 841.009 221.918 841.467 222.254 842.064C222.599 842.661 222.772 843.357 222.772 844.15C222.772 844.943 222.594 845.643 222.24 846.25C221.894 846.847 221.423 847.309 220.826 847.636C220.228 847.963 219.566 848.126 218.838 848.126ZM218.838 847.006C219.295 847.006 219.724 846.899 220.126 846.684C220.527 846.469 220.849 846.147 221.092 845.718C221.344 845.289 221.47 844.766 221.47 844.15C221.47 843.534 221.348 843.011 221.106 842.582C220.863 842.153 220.546 841.835 220.154 841.63C219.762 841.415 219.337 841.308 218.88 841.308C218.413 841.308 217.984 841.415 217.592 841.63C217.209 841.835 216.901 842.153 216.668 842.582C216.434 843.011 216.318 843.534 216.318 844.15C216.318 844.775 216.43 845.303 216.654 845.732C216.887 846.161 217.195 846.483 217.578 846.698C217.96 846.903 218.38 847.006 218.838 847.006ZM228.255 840.188C228.834 840.188 229.356 840.314 229.823 840.566C230.29 840.809 230.654 841.177 230.915 841.672C231.186 842.167 231.321 842.769 231.321 843.478V848H230.061V843.66C230.061 842.895 229.87 842.311 229.487 841.91C229.104 841.499 228.582 841.294 227.919 841.294C227.247 841.294 226.71 841.504 226.309 841.924C225.917 842.344 225.721 842.955 225.721 843.758V848H224.447V837.64H225.721V841.42C225.973 841.028 226.318 840.725 226.757 840.51C227.205 840.295 227.704 840.188 228.255 840.188ZM232.926 844.136C232.926 843.352 233.085 842.666 233.402 842.078C233.719 841.481 234.153 841.019 234.704 840.692C235.264 840.365 235.885 840.202 236.566 840.202C237.238 840.202 237.821 840.347 238.316 840.636C238.811 840.925 239.179 841.289 239.422 841.728V840.328H240.71V848H239.422V846.572C239.17 847.02 238.792 847.393 238.288 847.692C237.793 847.981 237.215 848.126 236.552 848.126C235.871 848.126 235.255 847.958 234.704 847.622C234.153 847.286 233.719 846.815 233.402 846.208C233.085 845.601 232.926 844.911 232.926 844.136ZM239.422 844.15C239.422 843.571 239.305 843.067 239.072 842.638C238.839 842.209 238.521 841.882 238.12 841.658C237.728 841.425 237.294 841.308 236.818 841.308C236.342 841.308 235.908 841.42 235.516 841.644C235.124 841.868 234.811 842.195 234.578 842.624C234.345 843.053 234.228 843.557 234.228 844.136C234.228 844.724 234.345 845.237 234.578 845.676C234.811 846.105 235.124 846.437 235.516 846.67C235.908 846.894 236.342 847.006 236.818 847.006C237.294 847.006 237.728 846.894 238.12 846.67C238.521 846.437 238.839 846.105 239.072 845.676C239.305 845.237 239.422 844.729 239.422 844.15ZM252.089 840.188C252.686 840.188 253.218 840.314 253.685 840.566C254.152 840.809 254.52 841.177 254.791 841.672C255.062 842.167 255.197 842.769 255.197 843.478V848H253.937V843.66C253.937 842.895 253.746 842.311 253.363 841.91C252.99 841.499 252.481 841.294 251.837 841.294C251.174 841.294 250.647 841.509 250.255 841.938C249.863 842.358 249.667 842.969 249.667 843.772V848H248.407V843.66C248.407 842.895 248.216 842.311 247.833 841.91C247.46 841.499 246.951 841.294 246.307 841.294C245.644 841.294 245.117 841.509 244.725 841.938C244.333 842.358 244.137 842.969 244.137 843.772V848H242.863V840.328H244.137V841.434C244.389 841.033 244.725 840.725 245.145 840.51C245.574 840.295 246.046 840.188 246.559 840.188C247.203 840.188 247.772 840.333 248.267 840.622C248.762 840.911 249.13 841.336 249.373 841.896C249.588 841.355 249.942 840.935 250.437 840.636C250.932 840.337 251.482 840.188 252.089 840.188ZM264.287 843.87C264.287 844.113 264.273 844.369 264.245 844.64H258.113C258.159 845.396 258.416 845.989 258.883 846.418C259.359 846.838 259.933 847.048 260.605 847.048C261.155 847.048 261.613 846.922 261.977 846.67C262.35 846.409 262.611 846.063 262.761 845.634H264.133C263.927 846.371 263.517 846.973 262.901 847.44C262.285 847.897 261.519 848.126 260.605 848.126C259.877 848.126 259.223 847.963 258.645 847.636C258.075 847.309 257.627 846.847 257.301 846.25C256.974 845.643 256.811 844.943 256.811 844.15C256.811 843.357 256.969 842.661 257.287 842.064C257.604 841.467 258.047 841.009 258.617 840.692C259.195 840.365 259.858 840.202 260.605 840.202C261.333 840.202 261.977 840.361 262.537 840.678C263.097 840.995 263.526 841.434 263.825 841.994C264.133 842.545 264.287 843.17 264.287 843.87ZM262.971 843.604C262.971 843.119 262.863 842.703 262.649 842.358C262.434 842.003 262.14 841.737 261.767 841.56C261.403 841.373 260.997 841.28 260.549 841.28C259.905 841.28 259.354 841.485 258.897 841.896C258.449 842.307 258.192 842.876 258.127 843.604H262.971ZM265.492 844.136C265.492 843.352 265.651 842.666 265.968 842.078C266.286 841.481 266.72 841.019 267.27 840.692C267.83 840.365 268.456 840.202 269.146 840.202C269.744 840.202 270.299 840.342 270.812 840.622C271.326 840.893 271.718 841.252 271.988 841.7V837.64H273.276V848H271.988V846.558C271.736 847.015 271.363 847.393 270.868 847.692C270.374 847.981 269.795 848.126 269.132 848.126C268.451 848.126 267.83 847.958 267.27 847.622C266.72 847.286 266.286 846.815 265.968 846.208C265.651 845.601 265.492 844.911 265.492 844.136ZM271.988 844.15C271.988 843.571 271.872 843.067 271.638 842.638C271.405 842.209 271.088 841.882 270.686 841.658C270.294 841.425 269.86 841.308 269.384 841.308C268.908 841.308 268.474 841.42 268.082 841.644C267.69 841.868 267.378 842.195 267.144 842.624C266.911 843.053 266.794 843.557 266.794 844.136C266.794 844.724 266.911 845.237 267.144 845.676C267.378 846.105 267.69 846.437 268.082 846.67C268.474 846.894 268.908 847.006 269.384 847.006C269.86 847.006 270.294 846.894 270.686 846.67C271.088 846.437 271.405 846.105 271.638 845.676C271.872 845.237 271.988 844.729 271.988 844.15ZM286.834 848H285.56L280.436 840.23V848H279.162V838.228H280.436L285.56 845.984V838.228H286.834V848ZM288.529 844.136C288.529 843.352 288.688 842.666 289.005 842.078C289.323 841.481 289.757 841.019 290.307 840.692C290.867 840.365 291.488 840.202 292.169 840.202C292.841 840.202 293.425 840.347 293.919 840.636C294.414 840.925 294.783 841.289 295.025 841.728V840.328H296.313V848H295.025V846.572C294.773 847.02 294.395 847.393 293.891 847.692C293.397 847.981 292.818 848.126 292.155 848.126C291.474 848.126 290.858 847.958 290.307 847.622C289.757 847.286 289.323 846.815 289.005 846.208C288.688 845.601 288.529 844.911 288.529 844.136ZM295.025 844.15C295.025 843.571 294.909 843.067 294.675 842.638C294.442 842.209 294.125 841.882 293.723 841.658C293.331 841.425 292.897 841.308 292.421 841.308C291.945 841.308 291.511 841.42 291.119 841.644C290.727 841.868 290.415 842.195 290.181 842.624C289.948 843.053 289.831 843.557 289.831 844.136C289.831 844.724 289.948 845.237 290.181 845.676C290.415 846.105 290.727 846.437 291.119 846.67C291.511 846.894 291.945 847.006 292.421 847.006C292.897 847.006 293.331 846.894 293.723 846.67C294.125 846.437 294.442 846.105 294.675 845.676C294.909 845.237 295.025 844.729 295.025 844.15ZM299.74 841.756C300.002 841.299 300.384 840.925 300.888 840.636C301.392 840.347 301.966 840.202 302.61 840.202C303.301 840.202 303.922 840.365 304.472 840.692C305.023 841.019 305.457 841.481 305.774 842.078C306.092 842.666 306.25 843.352 306.25 844.136C306.25 844.911 306.092 845.601 305.774 846.208C305.457 846.815 305.018 847.286 304.458 847.622C303.908 847.958 303.292 848.126 302.61 848.126C301.948 848.126 301.364 847.981 300.86 847.692C300.366 847.403 299.992 847.034 299.74 846.586V848H298.466V837.64H299.74V841.756ZM304.948 844.136C304.948 843.557 304.832 843.053 304.598 842.624C304.365 842.195 304.048 841.868 303.646 841.644C303.254 841.42 302.82 841.308 302.344 841.308C301.878 841.308 301.444 841.425 301.042 841.658C300.65 841.882 300.333 842.213 300.09 842.652C299.857 843.081 299.74 843.581 299.74 844.15C299.74 844.729 299.857 845.237 300.09 845.676C300.333 846.105 300.65 846.437 301.042 846.67C301.444 846.894 301.878 847.006 302.344 847.006C302.82 847.006 303.254 846.894 303.646 846.67C304.048 846.437 304.365 846.105 304.598 845.676C304.832 845.237 304.948 844.724 304.948 844.136ZM308.585 839.082C308.343 839.082 308.137 838.998 307.969 838.83C307.801 838.662 307.717 838.457 307.717 838.214C307.717 837.971 307.801 837.766 307.969 837.598C308.137 837.43 308.343 837.346 308.585 837.346C308.819 837.346 309.015 837.43 309.173 837.598C309.341 837.766 309.425 837.971 309.425 838.214C309.425 838.457 309.341 838.662 309.173 838.83C309.015 838.998 308.819 839.082 308.585 839.082ZM309.201 840.328V848H307.927V840.328H309.201ZM312.647 837.64V848H311.373V837.64H312.647Z" fill="#3598DB"/>

</svg>
